<?xml version="1.0" encoding="UTF-8" standalone="no"?>
<svg
   xmlns:dc="http://purl.org/dc/elements/1.1/"
   xmlns:cc="http://creativecommons.org/ns#"
   xmlns:rdf="http://www.w3.org/1999/02/22-rdf-syntax-ns#"
   xmlns:svg="http://www.w3.org/2000/svg"
   xmlns="http://www.w3.org/2000/svg"
   xmlns:sodipodi="http://sodipodi.sourceforge.net/DTD/sodipodi-0.dtd"
   xmlns:inkscape="http://www.inkscape.org/namespaces/inkscape"
   id="Gomaisasa, traced from a JPEG file by Misogi."
   sodipodi:version="0.32"
   inkscape:version="1.0.2 (e86c8708, 2021-01-15)"
   width="400"
   height="400"
   sodipodi:docname="Gomaisasa.svg"
   version="1.0">
  <metadata
     id="metadata7">
    <rdf:RDF>
      <cc:Work
         rdf:about="">
        <dc:format>image/svg+xml</dc:format>
        <dc:type
           rdf:resource="http://purl.org/dc/dcmitype/StillImage" />
      </cc:Work>
    </rdf:RDF>
  </metadata>
  <defs
     id="defs5" />
  <sodipodi:namedview
     inkscape:window-height="1309"
     inkscape:window-width="1280"
     inkscape:pageshadow="2"
     inkscape:pageopacity="0.0"
     guidetolerance="10.0"
     gridtolerance="10.0"
     objecttolerance="10.0"
     borderopacity="1.0"
     bordercolor="#666666"
     pagecolor="#ffffff"
     id="base"
     inkscape:zoom="1"
     inkscape:cx="174.5"
     inkscape:cy="177.5"
     inkscape:window-x="1419"
     inkscape:window-y="115"
     inkscape:current-layer="Gomaisasa, traced from a JPEG file by Misogi."
     inkscape:document-rotation="0"
     showgrid="false"
     inkscape:window-maximized="0" />
  <path
     style="fill:#005900;fill-opacity:1"
     d="M 155.52046,213.87097 C 152.0272,195.03868 152.778,175.16449 157.55555,160 c 6.04003,-18.67891 16.77608,-35.53498 36.7993,-39.63292 l 3.06451,-0.44614 0.858,184.59519 h 3.65813 V 119.81619 l 3.71985,0.3888 c 23.22475,2.42746 39.78574,25.67009 43.42293,60.9422 1.74998,43.36792 -22.13848,100.94861 -49.25482,134.96912 -20.91352,-30.57442 -35.73707,-66.3883 -44.30299,-102.24534 z m 143.83223,54.89828 c -15.22736,-6.71761 -25.90616,-12.21136 -32.56531,-16.75333 -6.09023,-4.15395 -18.72423,-15.794 -19.37785,-17.85335 -0.21058,-0.66347 0.62222,-5.21018 1.85065,-10.1038 2.99285,-11.92233 4.27065,-21.27343 4.37597,-32.02387 l 0.0875,-8.93285 6.39979,6.3522 c 20.87959,20.98557 34.40691,47.92413 43.08205,75.97857 1.10648,4.37253 1.24312,4.57592 3.20609,4.77214 2.04585,0.20451 2.0494,0.19954 1.61137,-2.25806 -7.76827,-31.09698 -24.38318,-59.02097 -46.15397,-82.2761 -5.82076,-5.74257 -8.96576,-9.31648 -8.96576,-10.18849 0,-2.64488 -2.06136,-11.40342 -4.19824,-17.838 -3.28183,-9.88225 -9.25689,-21.06132 -13.82724,-25.87012 -0.7588,-0.79838 -1.22663,-1.45161 -1.03963,-1.45161 1.57198,0 13.39031,4.38947 17.77478,6.60176 7.65024,3.86011 12.43507,7.18104 17.71651,12.29616 2.49786,2.41919 4.87391,4.60038 5.28013,4.84708 1.84409,1.11996 11.17583,12.77859 15.76092,19.69096 14.2872,21.53898 20.21808,41.31595 21.60631,72.04791 0.40329,8.92774 -0.51839,25.0443 -1.53625,26.86312 -0.32126,0.57406 -3.40146,-0.50945 -11.08784,-3.90032 z m -206.71956,2.33618 c -1.8297,-5.91284 -2.24452,-31.88886 -0.71559,-44.81099 1.85278,-18.53077 8.33854,-35.76347 17.68425,-51.76819 3.09613,-4.68339 8.33902,-13.7451 14.98038,-19.96213 6.64136,-6.21703 14.33097,-10.99026 20.62457,-15.09667 5.66364,-3.69538 17.79663,-8.1898 20.9223,-8.89201 l 1.93549,-0.43483 -1.38275,1.5426 c -2.25115,2.5114 -7.11915,10.39082 -8.8814,14.37558 -2.61714,5.91782 -5.34219,15.0344 -6.85055,22.91835 l -1.39767,7.30539 -8.54323,8.47164 c -22.12393,22.61352 -38.06712,51.54477 -45.86455,82.22676 -0.41942,2.09852 -0.38583,2.138 1.64603,1.93548 1.98854,-0.1982 2.12181,-0.39318 3.22811,-4.72286 7.93775,-28.7122 23.28846,-54.63196 43.44441,-76.40456 l 5.50338,-5.43682 0.0347,10.27553 c 0.0403,11.94611 1.05172,19.60701 4.2769,32.3952 2.76779,10.97456 3.071,10.03684 -5.57131,17.22985 -11.14324,9.27452 -22.25702,15.77795 -41.9001,24.51862 -12.13284,5.3988 -12.77815,5.6111 -13.17333,4.33406 z m 266.72172,-54.77144 c -8.88018,-1.56297 -21.98419,-5.05382 -36.17456,-9.63674 l -13.27133,-4.28611 -3.13223,-7.49589 c -6.56575,-15.71284 -11.39487,-23.9474 -19.63825,-33.48688 l -4.56575,-5.28363 3.39105,1.32653 c 28.08257,10.6984 51.78983,29.06752 71.50896,51.43104 l 2.24346,2.77328 1.44173,-1.53465 1.44174,-1.53466 -4.32525,-5.10959 c -19.81642,-23.27341 -45.59243,-40.02338 -73.96415,-50.93102 -6.47109,-2.15656 -7.43089,-2.70522 -13.16262,-7.52435 -7.52006,-6.32269 -15.19572,-11.3956 -22.28436,-14.72789 l -5.31489,-2.49847 5.48387,-0.16474 c 14.86007,-0.44639 26.83249,1.09575 38.44715,4.95232 14.67105,4.87142 33.06389,15.41411 44.92074,25.74839 11.08768,9.66387 22.2665,23.94155 28.56616,36.48493 2.72364,5.42309 6.77772,16.19237 7.7122,20.48672 0.44491,2.04457 0.40279,2.09528 -1.69176,2.0367 -1.18143,-0.0331 -4.61578,-0.49442 -7.63191,-1.02529 z M 34.62832,214.03226 c 0.22137,-1.15323 1.39633,-4.9755 2.61103,-8.49393 7.64591,-22.14687 25.15827,-44.1098 46.30905,-58.07796 16.87578,-11.14491 32.02593,-17.43134 48.38709,-20.07785 6.85028,-1.10806 20.92375,-1.44007 26.69271,-0.62971 l 3.46689,0.487 -4.43463,1.78356 c -8.8689,3.56698 -19.0667,9.70683 -26.59515,16.01231 -3.40242,2.84969 -5.69559,4.21759 -8.36069,4.98719 -30.73595,9.9989 -57.35402,29.10177 -78.57291,53.22396 l -3.63093,4.49393 1.52381,1.25156 1.52381,1.25156 2.54717,-3.02516 c 17.80126,-21.18647 40.24725,-37.0603 65.25994,-48.59069 4.13851,-1.75386 7.63693,-3.07646 7.77427,-2.93912 0.13735,0.13734 -1.40955,2.10707 -3.43754,4.37717 -10.13801,11.34837 -18.61486,25.56779 -21.4574,35.99355 -0.71518,2.62312 -1.42528,4.89427 -1.57801,5.04699 -0.59679,0.59679 -19.91934,6.8086 -28.70263,9.22732 -9.86768,2.71733 -24.63923,5.79509 -27.81324,5.79509 -1.81313,0 -1.8937,-0.11169 -1.51264,-2.09677 z"
     id="path2049"
     sodipodi:nodetypes="csccccccssscssscccssssssssssssssccsssscccscccssscccssscccccccccccccsscccsssssccssscccsscccccsssssssc" />
</svg>
