<?xml version="1.0" encoding="UTF-8" standalone="no"?>
<svg
   xmlns:dc="http://purl.org/dc/elements/1.1/"
   xmlns:cc="http://creativecommons.org/ns#"
   xmlns:rdf="http://www.w3.org/1999/02/22-rdf-syntax-ns#"
   xmlns:svg="http://www.w3.org/2000/svg"
   xmlns="http://www.w3.org/2000/svg"
   xmlns:sodipodi="http://sodipodi.sourceforge.net/DTD/sodipodi-0.dtd"
   xmlns:inkscape="http://www.inkscape.org/namespaces/inkscape"
   inkscape:version="1.0.2 (e86c8708, 2021-01-15)"
   sodipodi:docname="Sumikiri.svg"
   viewBox="0 0 164 164"
   height="164"
   width="164"
   id="svg44"
   version="1.1">
  <metadata
     id="metadata50">
    <rdf:RDF>
      <cc:Work
         rdf:about="">
        <dc:format>image/svg+xml</dc:format>
        <dc:type
           rdf:resource="http://purl.org/dc/dcmitype/StillImage" />
        <dc:title />
      </cc:Work>
    </rdf:RDF>
  </metadata>
  <defs
     id="defs48" />
  <sodipodi:namedview
     fit-margin-bottom="0"
     fit-margin-right="0"
     fit-margin-left="0"
     fit-margin-top="0"
     inkscape:current-layer="g52"
     inkscape:window-maximized="0"
     inkscape:window-y="329"
     inkscape:window-x="1217"
     inkscape:cy="77.763375"
     inkscape:cx="227.60566"
     inkscape:zoom="1.4162219"
     showgrid="false"
     id="namedview46"
     inkscape:window-height="1086"
     inkscape:window-width="1352"
     inkscape:pageshadow="2"
     inkscape:pageopacity="0"
     guidetolerance="10"
     gridtolerance="10"
     objecttolerance="10"
     borderopacity="1"
     bordercolor="#666666"
     pagecolor="#ffffff"
     inkscape:document-rotation="0" />
  <g
     transform="translate(88.09119,-27.885457)"
     id="g52"
     inkscape:label="Image"
     inkscape:groupmode="layer">
    <path
       id="path56"
       d="M -57.863113,161.59758 -88.09119,131.3097 V 110.34153 89.373359 L -57.335236,58.629408 -26.579283,27.885457 H -6.0791881 14.42091 l 30.74395,30.755954 30.74395,30.755953 v 21.000196 21.0002 L 45.65276,161.64161 15.39671,191.88546 H -6.1191631 -27.635036 Z m 93.014563,-9.45462 24.75736,-24.7425 v -17.5 -17.499998 L 35.66646,68.142959 11.42412,43.885457 H -6.0760341 -23.576185 L -47.833688,68.127803 -72.09119,92.370149 v 17.500301 17.5003 l 24.742499,24.75735 24.7425,24.75736 H -6.1060461 10.3941 Z m -49.938521,17.4925 c -3.594987,-2.55348 -6.304119,-6.6343 -6.304119,-9.496 0,-1.38626 -1.111554,-2.27045 -3.907255,-3.10807 -4.910471,-1.47121 -10.092745,-7.16355 -10.092745,-11.08611 0,-3.35747 3.065381,-7.19616 14.695901,-18.40328 6.425426,-6.19152 8.569987,-7.70693 10.182386,-7.19517 1.7962069,0.57009 2.0775289,1.6075 2.3321569,8.6001 0.37586,10.32191 2.201852,10.35294 2.578404,0.0438 0.277233,-7.58999 0.393841,-7.93434 2.899822,-8.5633 2.12007999,-0.5321 3.38183999,0.0584 6.71115,3.1406 C 20.94727,138.97192 22.90881,141.3693 22.90881,146.301 c 0,3.55417 -5.43808,9.33582 -10.09274,10.73039 -2.41267,0.72286 -3.9086901,1.7795 -3.9110001,2.76236 -0.006,2.69945 -3.81167,8.00859 -7.23712,10.09711 -4.60779,2.80941 -12.3084289,2.68989 -16.4550209,-0.2554 z m -31.808191,-31.58948 c -2.715238,-1.65586 -5.542709,-5.90502 -6.864622,-10.31622 -0.272892,-0.91064 -1.808451,-1.94393 -3.412354,-2.29621 -3.685449,-0.80946 -8.60062,-5.94076 -10.281554,-10.73366 -1.051935,-2.99942 -1.054709,-4.47951 -0.0149,-7.9501 1.576905,-5.26323 6.938591,-10.864333 10.39995,-10.864333 2.007604,0 2.763988,-0.731874 3.705859,-3.58577 1.514647,-4.589428 6.276537,-10.022941 9.491108,-10.829747 3.807885,-0.955718 7.038265,1.289799 18.102631,12.583587 12.567425,12.828013 12.652986,14.073153 1.019189,14.831933 -10.10168,0.65884 -10.356039,2.41646 -0.40403,2.79183 6.595582,0.24878 7.898403,0.59304 8.829704,2.33319 1.273109,2.37883 1.291041,2.35386 -10.566909,14.71334 -10.997448,11.46258 -14.113283,12.9146 -20.004072,9.32216 z M 14.122,127.54611 C 3.7390199,117.26841 2.7726599,116.00838 3.8004499,114.08794 c 0.97911,-1.82949 2.1795,-2.15866 8.7909001,-2.41065 5.01719,-0.19122 7.79954,-0.72277 8.07054,-1.54183 0.30811,-0.93123 -1.65412,-1.25 -7.6945,-1.25 -7.7586001,0 -8.1496301,-0.10928 -9.0720001,-2.53531 -0.87365,-2.29786 -0.28596,-3.25605 6.2747501,-10.230632 13.74509,-14.612197 15.92588,-16.156842 21.00948,-14.880939 3.29902,0.828 8.48948,6.278996 9.2422,9.706107 0.51689,2.35339 1.66137,3.390378 5.62244,5.094387 5.94366,2.556894 8.86455,7.287297 8.86455,14.356207 0,7.4779 -4.2617,13.1763 -11.08501,14.822 -1.92891,0.46522 -2.88529,1.62569 -3.76807,4.57213 -1.56165,5.21233 -6.21102,9.09605 -10.88929,9.09605 -3.23407,0 -4.72159,-1.12118 -15.04444,-11.33935 z m -25.923941,-10.91065 c -3.106639,-3.3942 -3.612163,-6.26725 -1.781535,-10.12502 3.507644,-7.391807 14.48760589,-5.38248 16.0819559,2.943 0.45942,2.39907 0.004,3.76177 -2.08997001,6.25 -3.39038999,4.02926 -8.98477599,4.45627 -12.21045089,0.93202 z M -24.085488,90.135457 C -34.814887,79.673085 -35.109607,79.268214 -35.100523,75.003534 c 0.0079,-3.702337 0.549506,-4.891371 3.492328,-7.66681 1.915647,-1.806687 4.871053,-3.589755 6.567569,-3.962373 1.696516,-0.372617 3.30785,-1.422553 3.580742,-2.33319 2.713707,-9.055606 7.24935,-12.411619 16.1013459,-11.913706 5.26164799,0.295961 6.706208,0.804277 9.272318,3.262764 1.67182,1.601702 3.53747,4.573691 4.14589,6.60442 0.85451,2.852111 1.74094,3.819178 3.8957501,4.250139 3.86241,0.772483 9.683,6.133105 10.44971,9.623939 0.83103,3.783625 -0.52133,6.155413 -7.91048,13.873536 -9.6191901,10.047454 -14.90123011,14.134997 -17.4158901,13.477397 -1.995109,-0.521734 -2.16995,-1.202647 -2.16995,-8.450824 0,-6.340772 -0.293516,-7.883369 -1.5,-7.883369 -1.206639,0 -1.5,1.543668 -1.5,7.893011 0,7.837079 -0.567082,9.106992 -4.0667519,9.106992 -0.496747,0 -5.864143,-4.837503 -11.927546,-10.750003 z"
       style="fill:#0042f3;fill-opacity:1" />
  </g>
</svg>
